# Blender 4.5.0
# www.blender.org
mtllib fire_block.mtl
o Cube
v -0.250000 0.000000 7.500000
v -0.250000 10.000000 7.500000
v -0.250000 0.000000 -7.500000
v -0.250000 10.000000 -7.500000
v 0.250000 0.000000 7.500000
v 0.250000 10.000000 7.500000
v 0.250000 0.000000 -7.500000
v 0.250000 10.000000 -7.500000
vn -1.0000 -0.0000 -0.0000
vn -0.0000 -0.0000 -1.0000
vn 1.0000 -0.0000 -0.0000
vn -0.0000 -0.0000 1.0000
vn -0.0000 -1.0000 -0.0000
vn -0.0000 1.0000 -0.0000
vt 0.999226 0.001060
vt 0.995069 0.998662
vt 0.006683 1.008039
vt -0.004679 -0.004072
vt 0.011703 1.935984
vt -0.943465 1.935984
vt -0.943465 0.980815
vt 0.011703 0.980816
vt 0.987760 -0.001983
vt 0.992517 1.007478
vt -0.002883 0.992124
vt 0.007808 -0.003591
vt 0.666667 0.666667
vt 0.333333 0.666667
vt 0.333333 0.333333
vt 0.666667 0.333333
vt 0.011703 1.935984
vt 0.011703 2.891152
vt -0.943465 2.891152
vt 0.666667 0.666667
vt 0.666667 1.000000
vt 0.333333 1.000000
vt 0.333333 0.666667
s 0
usemtl fire
f 1/1/1 2/2/1 4/3/1 3/4/1
f 3/5/2 4/6/2 8/7/2 7/8/2
f 7/9/3 8/10/3 6/11/3 5/12/3
f 5/13/4 6/14/4 2/15/4 1/16/4
f 3/17/5 7/18/5 5/19/5 1/6/5
f 8/20/6 4/21/6 2/22/6 6/23/6
