# Blender 4.5.0
# www.blender.org
mtllib wall4.mtl
o Cube
v 0.250000 50.000000 -100.000000
v 0.250000 0.000000 -100.000000
v 0.250000 50.000000 100.000000
v 0.250000 0.000000 100.000000
v -0.250000 50.000000 -100.000000
v -0.250000 0.000000 -100.000000
v -0.250000 50.000000 100.000000
v -0.250000 0.000000 100.000000
vn -0.0000 1.0000 -0.0000
vn -0.0000 -0.0000 1.0000
vn -1.0000 -0.0000 -0.0000
vn -0.0000 -1.0000 -0.0000
vn 1.0000 -0.0000 -0.0000
vn -0.0000 -0.0000 -1.0000
vt 0.333333 0.000000
vt 0.333333 0.333333
vt 0.000000 0.333333
vt 0.000000 0.000000
vt 0.333333 0.666667
vt 0.000000 0.666667
vt 0.000000 0.333333
vt 0.333333 0.333333
vt 0.999500 0.001342
vt 0.997150 1.000651
vt 0.004500 1.001878
vt 0.004500 -0.011541
vt 0.666667 0.333333
vt 0.666667 0.666667
vt 0.333333 0.666667
vt 0.333333 0.333333
vt 0.994469 0.003968
vt 0.999133 0.997652
vt 0.002348 1.002315
vt -0.002315 0.008631
vt 0.666667 1.000000
vt 0.333333 1.000000
vt 0.333333 0.666667
vt 0.666667 0.666667
s 0
usemtl Material
f 1/1/1 5/2/1 7/3/1 3/4/1
f 4/5/2 3/6/2 7/7/2 8/8/2
f 8/9/3 7/10/3 5/11/3 6/12/3
f 6/13/4 2/14/4 4/15/4 8/16/4
f 2/17/5 1/18/5 3/19/5 4/20/5
f 6/21/6 5/22/6 1/23/6 2/24/6
