# Blender 4.5.0
# www.blender.org
mtllib wall2.mtl
o Cube
v 0.250000 50.000000 -100.000000
v 0.250000 0.000000 -100.000000
v 0.250000 50.000000 100.000000
v 0.250000 0.000000 100.000000
v -0.250000 50.000000 -100.000000
v -0.250000 0.000000 -100.000000
v -0.250000 50.000000 100.000000
v -0.250000 0.000000 100.000000
vn -0.0000 1.0000 -0.0000
vn -0.0000 -0.0000 1.0000
vn -1.0000 -0.0000 -0.0000
vn -0.0000 -1.0000 -0.0000
vn 1.0000 -0.0000 -0.0000
vn -0.0000 -0.0000 -1.0000
vt 0.333333 0.000000
vt 0.333333 0.333333
vt 0.000000 0.333333
vt 0.000000 0.000000
vt 0.333333 0.666667
vt 0.000000 0.666667
vt 0.000000 0.333333
vt 0.333333 0.333333
vt 0.999877 0.012307
vt 0.994425 0.993728
vt -0.003052 1.011200
vt 0.008750 0.014442
vt 0.666667 0.333333
vt 0.666667 0.666667
vt 0.333333 0.666667
vt 0.333333 0.333333
vt 1.001009 0.009249
vt 0.990288 0.996409
vt 0.002736 0.999673
vt 0.010282 0.012514
vt 0.666667 1.000000
vt 0.333333 1.000000
vt 0.333333 0.666667
vt 0.666667 0.666667
s 0
usemtl Material
f 1/1/1 5/2/1 7/3/1 3/4/1
f 4/5/2 3/6/2 7/7/2 8/8/2
f 8/9/3 7/10/3 5/11/3 6/12/3
f 6/13/4 2/14/4 4/15/4 8/16/4
f 2/17/5 1/18/5 3/19/5 4/20/5
f 6/21/6 5/22/6 1/23/6 2/24/6
